<?xml version="1.0" encoding="utf-8"?>
<svg version="1.1" xmlns="http://www.w3.org/2000/svg" x="0px" y="0px"
	 viewBox="0 0 800 800" style="enable-background:new 0 0 800 800;" xml:space="preserve">
<g id="Objects">
	<g>
		<g>
			<circle style="fill:#4DD0E1;" cx="400" cy="400" r="295.738"/>
			<path style="fill:#FAFAFA;" d="M583.859,222.461c-6.017-16.38-21.763-28.072-40.235-28.072c-3.573,0-7.051,0.437-10.367,1.268
				c-3.025-15.023-16.294-26.337-32.208-26.337c-14.688,0-27.122,9.639-31.329,22.935l0,0c-5.897-8.383-15.643-13.869-26.675-13.869
				c-4.62,0-9.017,0.96-13.003,2.709c-0.001,0.001-0.003,0.001-0.004,0.002c-2.474-3.794-5.67-7.071-9.4-9.632
				c0.081-0.824,0.124-1.659,0.124-2.505c0-14.044-11.385-25.429-25.429-25.429c-10.415,0-19.363,6.265-23.294,15.229
				c-6.191-9.186-16.69-15.229-28.601-15.229c-19.035,0-34.467,15.431-34.467,34.467c0,0.171,0.01,0.339,0.013,0.509
				c-0.828-0.074-1.664-0.118-2.51-0.118c-15.464,0-28.001,12.536-28.001,28.001c0,3.931,0.814,7.671,2.276,11.066
				c-4.054,0.583-7.705,2.374-10.593,5.006c-4.02,3.652-6.54,8.923-6.54,14.786h8h32.004h120.2h38.452h38.495h54.856h30.861
				C586.482,232.052,585.556,227.072,583.859,222.461z"/>
			<path style="fill:#FAFAFA;" d="M321.509,310.528H118.043c11.49-36.255,29.775-69.476,53.375-98.184
				c5.242-1.784,10.859-2.706,16.708-2.633c21.1,0.267,38.985,13.517,46.168,32.057c7.498,3.046,13.723,8.554,17.666,15.531
				c1.504-0.206,3.045-0.291,4.611-0.291c18.334,0,33.452,13.832,35.454,31.632c2.087-0.631,4.307-0.971,6.613-0.971
				c5.411,0,10.362,1.881,14.293,5.023C318.16,296.878,321.509,303.309,321.509,310.528z"/>
			<path style="fill:#FAFAFA;" d="M687.429,330.099H524.416c0-5.581,1.589-10.811,4.344-15.215
				c5.072-8.19,14.148-13.638,24.497-13.638c1.747,0,3.458,0.146,5.12,0.449c-0.085-0.946-0.146-1.905-0.146-2.888
				c0-17.278,14.014-31.28,31.292-31.28c1.395,0,2.779,0.097,4.125,0.279c7.11-14.232,21.901-23.927,38.876-23.709
				c8.566,0.109,16.501,2.718,23.126,7.134C669.823,275.523,680.622,302.034,687.429,330.099z"/>
			<path style="fill:#013D32;" d="M400,695.737c158.738,0,288.25-125.067,295.41-282.037l-39.945-66.775l-44.802,74.896
				l-12.469-20.844h8.71l-52.042-86.998l-52.042,86.998h8.71l-28.59,47.794h14.843l-28.342,52.872h71.905v28.361H431.07
				l-22.367-41.725h14.843l-28.59-47.794h8.71l-52.042-86.998l-33.988,56.817l-37.912-63.378l-12.427,20.773l-32.013-53.515
				l-44.837,74.954l-27.995-46.798l-52.042,86.998h8.71l-11.004,18.395C130.94,588.364,252.921,695.737,400,695.737z"/>
			<path style="fill:#004D40;" d="M655.942,418.048l-36.922,61.721h6.179l-20.283,33.908h10.531l-18.882,35.224h-44.733v-30.472
				h51.014l-20.107-37.51h10.531l-20.283-33.908h6.179l-36.922-61.722l-12.44,20.796l-25.526-42.671l-36.922,61.722h6.179
				l-20.283,33.908h10.531l-20.107,37.51h49.692l-11.726,21.875h13.048v30.472h-42.514v-23.954H300.069l-17.406-29.098h6.179
				l-36.922-61.722l-8.555,14.302l-23.276-38.911l-12.069,20.175l-27.817-46.502l-36.922,61.722h6.179l-15.409,25.759L119.6,446.513
				l-8.929,14.926C138.954,595.282,257.738,695.737,400,695.737c139.058,0,255.678-95.984,287.276-225.308L655.942,418.048z
				 M532.654,548.901h-18.788v-30.472h18.788V548.901z"/>
			<path style="fill:#43A047;" d="M628.521,587.728c-3.058,3.725-6.212,7.365-9.452,10.932c-2.305,2.548-4.647,5.035-7.037,7.498
				c-23.612,24.279-51.349,44.505-82.083,59.563c-5.436,2.669-10.956,5.169-16.562,7.498c-34.92,14.512-73.213,22.52-113.387,22.52
				c-79.328,0-151.352-31.244-204.46-82.083c-2.572-2.451-5.096-4.95-7.571-7.498c-5.739-5.909-11.248-12.061-16.489-18.431H628.521
				z"/>
			<path style="fill:#388E3C;" d="M350.799,609.908c0,2.075-1.687,3.749-3.749,3.749H195.54c-2.572-2.451-5.096-4.95-7.571-7.498
				H347.05C349.112,606.159,350.799,607.833,350.799,609.908z"/>
			<path style="fill:#388E3C;" d="M436.184,623.659H252.928c-2.07,0-3.748,1.678-3.748,3.748c0,2.07,1.678,3.748,3.748,3.748
				h183.256c2.07,0,3.748-1.678,3.748-3.748C439.933,625.338,438.254,623.659,436.184,623.659z"/>
			<path style="fill:#388E3C;" d="M619.069,598.66c-2.305,2.548-4.647,5.035-7.037,7.498H497.795c-2.075,0-3.749-1.674-3.749-3.749
				c0-2.063,1.674-3.749,3.749-3.749H619.069z"/>
			<path style="fill:#388E3C;" d="M529.949,665.722c-5.436,2.669-10.956,5.169-16.562,7.498H390.742
				c-2.075,0-3.749-1.674-3.749-3.749c0-2.075,1.674-3.749,3.749-3.749H529.949z"/>
			<g>
				<path style="fill:#81C784;" d="M207.068,600.895c0,5.815,4.714,10.528,10.528,10.528
					C217.597,605.608,212.883,600.895,207.068,600.895z"/>
				<path style="fill:#66BB6A;" d="M228.125,600.895c0,5.815-4.714,10.528-10.528,10.528
					C217.597,605.608,222.31,600.895,228.125,600.895z"/>
			</g>
			<g>
				<path style="fill:#81C784;" d="M330.182,669.471c0,2.907,2.357,5.264,5.264,5.264
					C335.446,671.828,333.089,669.471,330.182,669.471z"/>
				<path style="fill:#66BB6A;" d="M340.71,669.471c0,2.907-2.357,5.264-5.264,5.264
					C335.446,671.828,337.803,669.471,340.71,669.471z"/>
			</g>
			<g>
				<path style="fill:#81C784;" d="M499.013,621.027c0,2.907,2.357,5.264,5.264,5.264
					C504.277,623.384,501.92,621.027,499.013,621.027z"/>
				<path style="fill:#66BB6A;" d="M509.541,621.027c0,2.907-2.357,5.264-5.264,5.264
					C504.277,623.384,506.634,621.027,509.541,621.027z"/>
			</g>
			<g>
				<path style="fill:#81C784;" d="M571.096,594.149c0,4.983,4.04,9.023,9.023,9.023
					C580.119,598.189,576.079,594.149,571.096,594.149z"/>
				<path style="fill:#66BB6A;" d="M589.142,594.149c0,4.983-4.04,9.023-9.023,9.023
					C580.119,598.189,584.159,594.149,589.142,594.149z"/>
			</g>
			<g>
				<path style="fill:#81C784;" d="M392.74,589.637c0,4.983,4.04,9.023,9.023,9.023C401.763,593.677,397.724,589.637,392.74,589.637
					z"/>
				<path style="fill:#66BB6A;" d="M410.787,589.637c0,4.983-4.04,9.023-9.023,9.023
					C401.763,593.677,405.803,589.637,410.787,589.637z"/>
			</g>
		</g>
		<g>
			<g>
				<path style="fill:#C8E6C9;" d="M562.711,496.955h-10.844c-1.487,0-2.692,1.205-2.692,2.692v7.773h16.228v-7.773
					C565.403,498.16,564.198,496.955,562.711,496.955z M555.764,504.886c0,0.756-0.613,1.369-1.369,1.369h-1.913
					c-0.756,0-1.369-0.613-1.369-1.369v-4.823c0-0.756,0.613-1.369,1.369-1.369h1.913c0.756,0,1.369,0.613,1.369,1.369V504.886z
					 M563.464,504.886c0,0.756-0.613,1.369-1.369,1.369h-1.913c-0.756,0-1.369-0.613-1.369-1.369v-4.823
					c0-0.756,0.613-1.369,1.369-1.369h1.913c0.756,0,1.369,0.613,1.369,1.369V504.886z"/>
				<path style="fill:#BDBDBD;" d="M557.671,503.225h-0.765c-0.322,0-0.583,0.261-0.583,0.584v2.726h1.932v-2.726
					C558.255,503.487,557.993,503.225,557.671,503.225z"/>
				<path style="fill:#7CB342;" d="M568.512,543.821h-22.447l0,0c0-3.067,2.486-5.553,5.553-5.553h11.34
					C566.026,538.267,568.512,540.754,568.512,543.821L568.512,543.821z"/>
				<path style="fill:#689F38;" d="M546.065,543.821c0,0.419,0.34,0.758,0.758,0.758h20.93c0.419,0,0.758-0.34,0.758-0.758H546.065z
					"/>
				<path style="fill:#AED581;" d="M557.289,504.88c-8.041,0-14.56,3.582-14.56,8v21.192c0,4.418,6.519,8,14.56,8
					c8.041,0,14.56-3.582,14.56-8V512.88C571.849,508.462,565.33,504.88,557.289,504.88z"/>
				<g>
					<path style="fill:#9CCC65;" d="M557.289,537.469c-6.222,0-11.607-0.748-14.28-1.84c1.319,3.673,7.208,6.444,14.28,6.444
						c7.072,0,12.961-2.771,14.28-6.444C568.896,536.721,563.51,537.469,557.289,537.469z"/>
				</g>
				<g>
					<path style="fill:#C5E1A5;" d="M557.289,509.484c6.222,0,11.607,0.748,14.28,1.84c-1.318-3.673-7.208-6.444-14.28-6.444
						c-7.072,0-12.961,2.771-14.28,6.444C545.681,510.232,551.067,509.484,557.289,509.484z"/>
				</g>
				<path style="fill:#FAFAFA;" d="M563.978,523.476c0,3.695-2.995,6.689-6.69,6.689c-3.695,0-6.69-2.995-6.69-6.689
					c0-3.694,2.995-6.689,6.69-6.689C560.983,516.787,563.978,519.782,563.978,523.476z"/>
				<path style="fill:#FFA726;" d="M559.715,525.315c0,1.34-1.087,2.427-2.427,2.427c-1.34,0-2.427-1.086-2.427-2.427
					c0-1.34,2.427-6.103,2.427-6.103S559.715,523.974,559.715,525.315z"/>
				<path style="fill:#FB8C00;" d="M558.69,526.34c0,0.774-0.628,1.402-1.402,1.402c-0.774,0-1.402-0.628-1.402-1.402
					s1.402-3.525,1.402-3.525S558.69,525.565,558.69,526.34z"/>
			</g>
			<rect x="584.631" y="551.718" style="fill:#616161;" width="4.793" height="36.012"/>
			<rect x="584.631" y="527.095" style="fill:#616161;" width="4.793" height="60.635"/>
			<path style="fill:#EEEEEE;" d="M591.716,527.095c0,2.589-2.099,4.689-4.689,4.689c-2.589,0-4.689-2.099-4.689-4.689
				c0-2.589,2.099-4.689,4.689-4.689C589.617,522.406,591.716,524.505,591.716,527.095z"/>
			<polygon style="fill:#757575;" points="590.183,550.165 542.323,563.552 542.323,559.66 590.183,546.273 			"/>
			<rect x="542.323" y="544.579" style="fill:#BDBDBD;" width="53.016" height="6.977"/>
			<rect x="249.403" y="544.165" style="fill:#004D40;" width="80.779" height="15.495"/>
			<g>
				
					<ellipse transform="matrix(0.2271 -0.9739 0.9739 0.2271 -322.0582 714.3906)" style="fill:#212121;" cx="289.028" cy="560.088" rx="27.642" ry="27.642"/>
				
					<ellipse transform="matrix(0.2282 -0.9736 0.9736 0.2282 -322.2373 713.6796)" style="fill:#00695C;" cx="289.028" cy="560.088" rx="15.923" ry="15.923"/>
				
					<ellipse transform="matrix(0.2362 -0.9717 0.9717 0.2362 -323.4759 708.6633)" style="fill:#F5F5F5;" cx="289.028" cy="560.088" rx="11.496" ry="11.496"/>
			</g>
			<path style="fill:#26A69A;" d="M462.243,386.556H300.089c-44.227,0-80.081,35.853-80.081,80.081v93.023h31.802l5.861-14.809
				h62.711l5.861,14.809h216.079v-93.023C542.323,422.409,506.47,386.556,462.243,386.556z"/>
			<path style="fill:#FFE57F;" d="M220.009,466.637v60.24h322.315v-60.24c0-4.915-0.467-9.719-1.315-14.39H221.323
				C220.475,456.918,220.009,461.721,220.009,466.637z"/>
			<g>
				<path style="fill:#FFD54F;" d="M542.243,462.994H220.088c0.061-1.31,0.158-2.609,0.279-3.907h321.597
					C542.085,460.385,542.182,461.683,542.243,462.994z"/>
				<rect x="220.003" y="469.703" style="fill:#FFD54F;" width="322.325" height="3.907"/>
				<rect x="220.003" y="480.32" style="fill:#FFD54F;" width="322.325" height="3.895"/>
				<rect x="220.003" y="490.937" style="fill:#FFD54F;" width="322.325" height="3.895"/>
				<rect x="220.003" y="501.542" style="fill:#FFD54F;" width="322.325" height="3.907"/>
				<rect x="220.003" y="512.158" style="fill:#FFD54F;" width="322.325" height="3.907"/>
			</g>
			<g>
				<path style="fill:#E0E0E0;" d="M444.144,429.328c-19.286,0-34.92,15.634-34.92,34.92v95.412h69.84v-95.412
					C479.064,444.962,463.429,429.328,444.144,429.328z"/>
				<path style="fill:#FFEE58;" d="M418.88,505.979c-0.751,0.751-1.607,1.112-1.913,0.807c-0.305-0.306,0.056-1.162,0.807-1.913
					c0.751-0.751,1.607-1.112,1.913-0.806C419.993,504.372,419.632,505.228,418.88,505.979z"/>
				<path style="fill:#FAFAFA;" d="M444.144,431.753c-17.925,0-32.457,14.531-32.457,32.457v95.45h64.914v-95.45
					C476.601,446.285,462.069,431.753,444.144,431.753z"/>
				<path style="opacity:0.25;fill:#212121;" d="M423.466,507.178c0,1.982-1.607,5.263-3.589,5.263c-1.983,0-3.59-3.281-3.59-5.263
					s1.607-1.562,3.59-1.562C421.859,505.616,423.466,505.195,423.466,507.178z"/>
				<path style="fill:#757575;" d="M423.466,507.178c0,1.982-1.607,3.59-3.589,3.59c-1.983,0-3.59-1.607-3.59-3.59
					s1.607-3.589,3.59-3.589C421.859,503.588,423.466,505.195,423.466,507.178z"/>
				<circle style="fill:#E0E0E0;" cx="444.144" cy="464.21" r="22.019"/>
				<g>
					<circle style="fill:#4FC3F7;" cx="444.144" cy="464.211" r="20.017"/>
					<g>
						<path style="fill:#81D4FA;" d="M446.095,444.293l-21.868,21.868c-0.073-0.645-0.103-1.291-0.103-1.951
							c0-0.777,0.044-1.54,0.132-2.303l17.586-17.586c0.763-0.088,1.525-0.132,2.303-0.132
							C444.804,444.19,445.449,444.219,446.095,444.293z"/>
						<path style="fill:#81D4FA;" d="M457.814,449.587l-28.278,28.293c-2.024-2.156-3.579-4.752-4.488-7.642l25.124-25.124
							C453.062,446.023,455.658,447.578,457.814,449.587z"/>
					</g>
				</g>
				<path style="opacity:0.25;fill:#212121;" d="M444.144,445.718c7.943,0,15.058,3.522,19.886,9.084
					c-3.531-7.448-11.095-12.611-19.886-12.611c-8.79,0-16.355,5.163-19.885,12.611
					C429.085,449.241,436.201,445.718,444.144,445.718z"/>
				<path style="fill:#616161;" d="M476.601,476.344c-0.67,0-1.213,0.543-1.213,1.213v5.457c0,0.67,0.543,1.213,1.213,1.213
					c0.67,0,1.213-0.543,1.213-1.213v-5.457C477.814,476.887,477.271,476.344,476.601,476.344z"/>
				<path style="fill:#616161;" d="M476.601,522.733c-0.67,0-1.213,0.543-1.213,1.213v5.457c0,0.67,0.543,1.213,1.213,1.213
					c0.67,0,1.213-0.543,1.213-1.213v-5.457C477.814,523.276,477.271,522.733,476.601,522.733z"/>
			</g>
			<path style="fill:#F5F5F5;" d="M476.601,567.445h71.163c2.15,0,3.892-1.743,3.892-3.892l0,0c0-2.15-1.743-3.893-3.892-3.893
				h-71.163V567.445z"/>
			<path style="fill:#F5F5F5;" d="M409.224,530.818H220.009c-1.332,0-2.412-1.08-2.412-2.412v-3.059c0-1.332,1.08-2.412,2.412-2.412
				h189.215V530.818z"/>
			<path style="fill:#F5F5F5;" d="M479.064,530.818h63.26c1.332,0,2.412-1.08,2.412-2.412v-3.059c0-1.332-1.08-2.412-2.412-2.412
				h-63.26V530.818z"/>
			<rect x="220.009" y="530.818" style="opacity:0.25;fill:#212121;" width="189.215" height="1.931"/>
			<rect x="479.064" y="530.818" style="opacity:0.25;fill:#212121;" width="63.26" height="1.931"/>
			<path style="fill:#FAFAFA;" d="M370.231,375.621h-51.349c-6.039,0-10.935,4.896-10.935,10.935h73.219
				C381.166,380.517,376.27,375.621,370.231,375.621z"/>
			<g>
				<polygon style="fill:#00897B;" points="324.541,563.598 318.322,547.885 259.734,547.885 253.514,563.598 247.874,561.364 
					255.61,541.818 322.445,541.818 330.182,561.364 				"/>
			</g>
			<path style="fill:#F5F5F5;" d="M411.687,567.445h-85.641c-2.15,0-3.892-1.743-3.892-3.892l0,0c0-2.15,1.743-3.893,3.892-3.893
				h85.641V567.445z"/>
			<path style="fill:#F5F5F5;" d="M251.526,567.445h-36.957c-2.15,0-3.893-1.743-3.893-3.892l0,0c0-2.15,1.743-3.893,3.893-3.893
				h36.957c2.15,0,3.892,1.743,3.892,3.893l0,0C255.418,565.702,253.676,567.445,251.526,567.445z"/>
			<rect x="405.924" y="559.664" style="fill:#BDBDBD;" width="76.441" height="5.046"/>
			<rect x="403.598" y="564.71" style="fill:#757575;" width="81.092" height="5.046"/>
			<g>
				<rect x="349.805" y="452.247" style="fill:#4FC3F7;" width="34.231" height="14.528"/>
				<g>
					<polygon style="fill:#81D4FA;" points="363.833,452.243 349.807,466.27 349.807,464.243 361.819,452.243 					"/>
					<polygon style="fill:#81D4FA;" points="371.914,452.243 357.378,466.779 351.954,466.779 366.49,452.243 					"/>
				</g>
				<g>
					<path style="fill:#FAFAFA;" d="M384.035,468.595h-34.231c-1.005,0-1.82-0.815-1.82-1.82v-14.528c0-1.005,0.815-1.82,1.82-1.82
						h34.231c1.005,0,1.82,0.815,1.82,1.82v14.528C385.855,467.78,385.041,468.595,384.035,468.595z M351.624,464.954h30.591
						v-10.888h-30.591V464.954z"/>
				</g>
				<rect x="351.624" y="454.067" style="opacity:0.25;fill:#212121;" width="30.591" height="2.039"/>
				<path style="opacity:0.25;fill:#212121;" d="M384.035,468.595h-34.231c-1.005,0-1.82-0.815-1.82-1.82v1.986
					c0,1.005,0.815,1.82,1.82,1.82h34.231c1.005,0,1.82-0.815,1.82-1.82v-1.986C385.855,467.78,385.041,468.595,384.035,468.595z"/>
				<g>
					<path style="fill:#BDBDBD;" d="M350.641,452.567c0,0.461-0.374,0.834-0.834,0.834s-0.834-0.373-0.834-0.834
						s0.373-0.834,0.834-0.834S350.641,452.106,350.641,452.567z"/>
					<path style="fill:#E0E0E0;" d="M349.656,452.398c-0.193,0.193-0.411,0.288-0.487,0.212s0.019-0.294,0.212-0.487
						c0.193-0.193,0.411-0.288,0.487-0.212S349.849,452.205,349.656,452.398z"/>
				</g>
				<g>
					<path style="fill:#BDBDBD;" d="M384.867,452.567c0,0.461-0.374,0.834-0.834,0.834c-0.461,0-0.834-0.373-0.834-0.834
						s0.373-0.834,0.834-0.834C384.493,451.733,384.867,452.106,384.867,452.567z"/>
					<path style="fill:#E0E0E0;" d="M383.882,452.398c-0.193,0.193-0.411,0.288-0.487,0.212c-0.076-0.076,0.019-0.294,0.212-0.487
						c0.193-0.193,0.411-0.288,0.487-0.212S384.075,452.205,383.882,452.398z"/>
				</g>
				<g>
					<path style="fill:#BDBDBD;" d="M350.641,466.454c0,0.461-0.374,0.834-0.834,0.834s-0.834-0.374-0.834-0.834
						c0-0.461,0.373-0.834,0.834-0.834S350.641,465.994,350.641,466.454z"/>
					<path style="fill:#E0E0E0;" d="M349.656,466.285c-0.193,0.193-0.411,0.288-0.487,0.212s0.019-0.294,0.212-0.487
						s0.411-0.288,0.487-0.212S349.849,466.092,349.656,466.285z"/>
				</g>
				<g>
					<path style="fill:#BDBDBD;" d="M384.867,466.454c0,0.461-0.374,0.834-0.834,0.834c-0.461,0-0.834-0.374-0.834-0.834
						c0-0.461,0.373-0.834,0.834-0.834C384.493,465.62,384.867,465.994,384.867,466.454z"/>
					<path style="fill:#E0E0E0;" d="M383.882,466.285c-0.193,0.193-0.411,0.288-0.487,0.212c-0.076-0.076,0.019-0.294,0.212-0.487
						c0.193-0.193,0.411-0.288,0.487-0.212S384.075,466.092,383.882,466.285z"/>
				</g>
			</g>
			<g>
				<rect x="497.262" y="452.247" style="fill:#4FC3F7;" width="29.276" height="14.528"/>
				<g>
					<polygon style="fill:#81D4FA;" points="511.29,452.243 497.264,466.27 497.264,464.243 509.276,452.243 					"/>
					<polygon style="fill:#81D4FA;" points="519.371,452.243 504.835,466.779 499.411,466.779 513.947,452.243 					"/>
				</g>
				<g>
					<path style="fill:#FAFAFA;" d="M526.538,468.595h-29.276c-1.005,0-1.82-0.815-1.82-1.82v-14.528c0-1.005,0.815-1.82,1.82-1.82
						h29.276c1.005,0,1.82,0.815,1.82,1.82v14.528C528.358,467.78,527.543,468.595,526.538,468.595z M499.081,464.954h25.636
						v-10.888h-25.636V464.954z"/>
				</g>
				<rect x="499.081" y="454.067" style="opacity:0.25;fill:#212121;" width="25.636" height="2.039"/>
				<path style="opacity:0.25;fill:#212121;" d="M526.538,468.595h-29.276c-1.005,0-1.82-0.815-1.82-1.82v1.986
					c0,1.005,0.815,1.82,1.82,1.82h29.276c1.005,0,1.82-0.815,1.82-1.82v-1.986C528.358,467.78,527.543,468.595,526.538,468.595z"/>
				<g>
					<path style="fill:#BDBDBD;" d="M498.098,452.567c0,0.461-0.374,0.834-0.834,0.834s-0.834-0.373-0.834-0.834
						s0.374-0.834,0.834-0.834S498.098,452.106,498.098,452.567z"/>
					<path style="fill:#E0E0E0;" d="M497.113,452.398c-0.193,0.193-0.411,0.288-0.487,0.212s0.019-0.294,0.212-0.487
						c0.193-0.193,0.411-0.288,0.487-0.212S497.306,452.205,497.113,452.398z"/>
				</g>
				<g>
					<path style="fill:#BDBDBD;" d="M527.37,452.567c0,0.461-0.373,0.834-0.834,0.834s-0.834-0.373-0.834-0.834
						s0.374-0.834,0.834-0.834S527.37,452.106,527.37,452.567z"/>
					<path style="fill:#E0E0E0;" d="M526.385,452.398c-0.193,0.193-0.411,0.288-0.487,0.212c-0.076-0.076,0.019-0.294,0.212-0.487
						c0.193-0.193,0.411-0.288,0.487-0.212C526.672,451.987,526.578,452.205,526.385,452.398z"/>
				</g>
				<g>
					<path style="fill:#BDBDBD;" d="M498.098,466.454c0,0.461-0.374,0.834-0.834,0.834s-0.834-0.374-0.834-0.834
						c0-0.461,0.374-0.834,0.834-0.834S498.098,465.994,498.098,466.454z"/>
					<path style="fill:#E0E0E0;" d="M497.113,466.285c-0.193,0.193-0.411,0.288-0.487,0.212s0.019-0.294,0.212-0.487
						c0.193-0.193,0.411-0.288,0.487-0.212S497.306,466.092,497.113,466.285z"/>
				</g>
				<g>
					<path style="fill:#BDBDBD;" d="M527.37,466.454c0,0.461-0.373,0.834-0.834,0.834s-0.834-0.374-0.834-0.834
						c0-0.461,0.374-0.834,0.834-0.834S527.37,465.994,527.37,466.454z"/>
					<path style="fill:#E0E0E0;" d="M526.385,466.285c-0.193,0.193-0.411,0.288-0.487,0.212c-0.076-0.076,0.019-0.294,0.212-0.487
						c0.193-0.193,0.411-0.288,0.487-0.212C526.672,465.874,526.578,466.092,526.385,466.285z"/>
				</g>
			</g>
			<g>
				<rect x="248.28" y="440.81" style="fill:#4FC3F7;" width="76.865" height="50.703"/>
				<path style="fill:#039BE5;" d="M305.318,444.449c0,0,1.618,10.637,7.28,14.031l0,0c0,0-3.842,14.85-4.449,29.393h13.356v-43.423
					H305.318z"/>
				<path style="fill:#039BE5;" d="M268.107,444.449c0,0-1.618,10.637-7.28,14.031l0,0c0,0,3.842,14.85,4.449,29.393H251.92v-43.423
					H268.107z"/>
				<g>
					<polygon style="fill:#81D4FA;" points="283.607,440.814 248.274,476.146 248.274,469.74 277.2,440.814 					"/>
					<polygon style="fill:#81D4FA;" points="325.14,446.092 325.14,449.295 282.927,491.507 279.724,491.507 					"/>
					<polygon style="fill:#81D4FA;" points="300.691,440.814 249.997,491.507 248.274,491.507 248.274,480.417 287.878,440.814 
											"/>
				</g>
				<g>
					<path style="fill:#FAFAFA;" d="M325.145,495.153H248.28c-2.01,0-3.64-1.63-3.64-3.64V440.81c0-2.01,1.63-3.64,3.64-3.64h76.865
						c2.01,0,3.64,1.63,3.64,3.64v50.703C328.785,493.523,327.155,495.153,325.145,495.153z M251.92,487.873h69.585v-43.423H251.92
						V487.873z"/>
				</g>
			</g>
			<g>
				<path style="fill:#E53935;" d="M235.285,549.869c0,2.899-2.35,5.249-5.249,5.249c-2.899,0-5.249-2.35-5.249-5.249
					s2.35-5.249,5.249-5.249C232.935,544.619,235.285,546.97,235.285,549.869z"/>
				<path style="fill:#E57373;" d="M234.472,549.869c0,2.45-1.986,4.436-4.436,4.436c-2.45,0-4.436-1.986-4.436-4.436
					c0-2.45,1.986-4.436,4.436-4.436C232.485,545.433,234.472,547.419,234.472,549.869z"/>
			</g>
			<g>
				<path style="fill:#212121;" d="M215.459,471.172h-4.276c-2.513,0-4.55,2.037-4.55,4.55v38.524c0,2.513,2.037,4.55,4.55,4.55
					h4.276c2.513,0,4.55-2.037,4.55-4.55v-38.524C220.009,473.209,217.972,471.172,215.459,471.172z"/>
				<path style="fill:#F5F5F5;" d="M206.632,485.125c-2.429,0-4.398,4.414-4.398,9.858c0,5.445,1.969,9.858,4.398,9.858V485.125z"/>
				<g>
					<path style="fill:#BDBDBD;" d="M202.934,500.307c0.783,2.725,2.145,4.535,3.698,4.535v-2.914
						C205.224,501.928,203.935,501.318,202.934,500.307z"/>
				</g>
			</g>
			<path style="opacity:0.25;fill:#212121;" d="M230.036,555.118c-2.899,0-5.249-2.35-5.249-5.249c0,2.899,2.35,6.338,5.249,6.338
				c2.899,0,5.249-3.439,5.249-6.338C235.285,552.768,232.935,555.118,230.036,555.118z"/>
			<g>
				<path style="fill:#FFD600;" d="M523.517,512.79c1.193,0.458,1.193,2.149,0,2.607c-2.819,1.083-6.618,2.447-7.867,2.447
					c-2.071,0-3.75-1.679-3.75-3.75c0-2.071,1.679-3.75,3.75-3.75C516.899,510.343,520.698,511.707,523.517,512.79z"/>
				<g style="opacity:0.25;">
					<g>
						<path style="fill:#212121;" d="M523.517,515.397c-2.819,1.083-6.618,2.447-7.867,2.447c-2.069,0-3.746-1.676-3.75-3.744
							c0,0.002-0.001,0.004-0.001,0.006s0.001,0.004,0.001,0.006c0,0.002-0.001,0.004-0.001,0.007s0.001,0.004,0.001,0.006
							s-0.001,0.004-0.001,0.006s0.001,0.004,0.001,0.006c0,0.002-0.001,0.004-0.001,0.006s0.001,0.004,0.001,0.006
							s-0.001,0.004-0.001,0.006s0.001,0.004,0.001,0.006s-0.001,0.004-0.001,0.006c0,0.002,0.001,0.004,0.001,0.006
							s-0.001,0.004-0.001,0.006c0,0.002,0.001,0.004,0.001,0.006s-0.001,0.004-0.001,0.007c0,0.002,0.001,0.004,0.001,0.006
							s-0.001,0.004-0.001,0.006c0,0.002,0.001,0.004,0.001,0.006c0,0.002-0.001,0.004-0.001,0.007s0.001,0.004,0.001,0.006
							s-0.001,0.004-0.001,0.006c0,0.002,0.001,0.004,0.001,0.006s-0.001,0.004-0.001,0.006s0.001,0.004,0.001,0.006
							c0,0.002-0.001,0.004-0.001,0.007s0.001,0.004,0.001,0.006c0,0.002-0.001,0.004-0.001,0.006c0,0.002,0.001,0.004,0.001,0.006
							c0,0.002-0.001,0.004-0.001,0.006s0.001,0.004,0.001,0.006s-0.001,0.004-0.001,0.006s0.001,0.004,0.001,0.006
							s-0.001,0.004-0.001,0.006c0,0.002,0.001,0.004,0.001,0.006c0,0.002-0.001,0.004-0.001,0.006c0,0.002,0.001,0.004,0.001,0.006
							s-0.001,0.004-0.001,0.007c0,0.002,0.001,0.004,0.001,0.006s-0.001,0.004-0.001,0.006c0,0.002,0.001,0.004,0.001,0.006
							c0,0.002-0.001,0.004-0.001,0.006s0.001,0.004,0.001,0.006c0,0.002-0.001,0.004-0.001,0.007s0.001,0.004,0.001,0.006
							c0,0.002-0.001,0.004-0.001,0.006s0.001,0.004,0.001,0.006c0,0.002-0.001,0.004-0.001,0.006s0.001,0.004,0.001,0.007
							c0,0.002-0.001,0.004-0.001,0.006s0.001,0.004,0.001,0.006s-0.001,0.004-0.001,0.006s0.001,0.004,0.001,0.006
							s-0.001,0.004-0.001,0.006s0.001,0.004,0.001,0.006s-0.001,0.004-0.001,0.006c0,0.002,0.001,0.004,0.001,0.006
							s-0.001,0.004-0.001,0.006c0,0.002,0.001,0.004,0.001,0.006s-0.001,0.004-0.001,0.007c0,0.002,0.001,0.004,0.001,0.006
							s-0.001,0.004-0.001,0.007c0,0.002,0.001,0.004,0.001,0.006c0,0.002-0.001,0.004-0.001,0.006s0.001,0.004,0.001,0.006
							c0,0.002-0.001,0.004-0.001,0.006s0.001,0.004,0.001,0.006c0,0.002-0.001,0.004-0.001,0.006s0.001,0.004,0.001,0.006
							s-0.001,0.004-0.001,0.006s0.001,0.004,0.001,0.006s-0.001,0.004-0.001,0.006c0,0.002,0.001,0.004,0.001,0.006
							s-0.001,0.004-0.001,0.006c0,0.002,0.001,0.004,0.001,0.006s-0.001,0.004-0.001,0.006c0,0.002,0.001,0.004,0.001,0.006
							s-0.001,0.004-0.001,0.007c0,0.002,0.001,0.004,0.001,0.006s-0.001,0.004-0.001,0.006c0,0.002,0.001,0.004,0.001,0.006
							c0,0.002-0.001,0.004-0.001,0.007c0,0.002,0.001,0.004,0.001,0.006c0,0.002-0.001,0.004-0.001,0.007s0.001,0.004,0.001,0.006
							c0,0.002-0.001,0.004-0.001,0.006s0.001,0.004,0.001,0.006c0,0.002-0.001,0.004-0.001,0.006s0.001,0.004,0.001,0.006
							c0,0.002-0.001,0.004-0.001,0.006s0.001,0.004,0.001,0.006s-0.001,0.004-0.001,0.006s0.001,0.004,0.001,0.006
							s-0.001,0.004-0.001,0.006c0,0.002,0.001,0.004,0.001,0.006s-0.001,0.004-0.001,0.006c0,0.002,0.001,0.004,0.001,0.006
							s-0.001,0.004-0.001,0.006c0,0.002,0.001,0.004,0.001,0.006s-0.001,0.004-0.001,0.006c0,0.002,0.001,0.004,0.001,0.006
							c0,0.002-0.001,0.004-0.001,0.007s0.001,0.004,0.001,0.006c0,0.002-0.001,0.004-0.001,0.006c0,0.002,0.001,0.004,0.001,0.006
							c0,0.002-0.001,0.004-0.001,0.006s0.001,0.004,0.001,0.006c0,0.002-0.001,0.004-0.001,0.007s0.001,0.004,0.001,0.006
							c0,0.002-0.001,0.004-0.001,0.006s0.001,0.004,0.001,0.006c0,0.002-0.001,0.004-0.001,0.006s0.001,0.004,0.001,0.006
							s-0.001,0.004-0.001,0.006s0.001,0.004,0.001,0.006s-0.001,0.004-0.001,0.006c0,0.002,0.001,0.004,0.001,0.006
							s-0.001,0.004-0.001,0.006c0,0.002,0.001,0.004,0.001,0.006s-0.001,0.004-0.001,0.006s0.001,0.004,0.001,0.006
							c0,0.002-0.001,0.004-0.001,0.006s0.001,0.004,0.001,0.006c0,0.002-0.001,0.004-0.001,0.007s0.001,0.004,0.001,0.006
							c0,0.002-0.001,0.004-0.001,0.006s0.001,0.004,0.001,0.006s-0.001,0.004-0.001,0.006s0.001,0.004,0.001,0.006
							s-0.001,0.004-0.001,0.006s0.001,0.004,0.001,0.006s-0.001,0.004-0.001,0.006c0,0.002,0.001,0.004,0.001,0.006
							s-0.001,0.004-0.001,0.006c0,0.002,0.001,0.004,0.001,0.007s-0.001,0.004-0.001,0.006c0,0.002,0.001,0.004,0.001,0.006
							s-0.001,0.004-0.001,0.006c0,0.002,0.001,0.004,0.001,0.006s-0.001,0.004-0.001,0.007c0,0.002,0.001,0.004,0.001,0.006
							s-0.001,0.004-0.001,0.007c0,2.071,1.679,3.75,3.75,3.75c1.249,0,5.048-1.364,7.867-2.447c0.599-0.23,0.896-0.771,0.894-1.31
							c0-0.004,0-0.008,0-0.013c0-0.004,0-0.008,0-0.013c0-0.004,0-0.008,0-0.013c0-0.004,0-0.008,0-0.013c0-0.004,0-0.008,0-0.013
							c0-0.004,0-0.009,0-0.013c0-0.004,0-0.008,0-0.013c0-0.004,0-0.008,0-0.013c0-0.004,0-0.008,0-0.013c0-0.004,0-0.008,0-0.013
							c0-0.004,0-0.008,0-0.013c0-0.004,0-0.008,0-0.013c0-0.004,0-0.008,0-0.013c0-0.004,0-0.008,0-0.013c0-0.004,0-0.008,0-0.013
							c0-0.004,0-0.008,0-0.013c0-0.004,0-0.008,0-0.013c0-0.004,0-0.008,0-0.013c0-0.004,0-0.008,0-0.013c0-0.004,0-0.008,0-0.013
							c0-0.004,0-0.008,0-0.013c0-0.004,0-0.008,0-0.013c0-0.004,0-0.008,0-0.013c0-0.004,0-0.008,0-0.013c0-0.004,0-0.008,0-0.013
							c0-0.004,0-0.009,0-0.013c0-0.004,0-0.008,0-0.013c0-0.004,0-0.008,0-0.013c0-0.004,0-0.008,0-0.013c0-0.004,0-0.008,0-0.013
							c0-0.004,0-0.008,0-0.013c0-0.004,0-0.008,0-0.013c0-0.004,0-0.008,0-0.013c0-0.004,0-0.008,0-0.013c0-0.004,0-0.009,0-0.013
							c0-0.004,0-0.008,0-0.013c0-0.004,0-0.008,0-0.013c0-0.004,0-0.008,0-0.013c0-0.004,0-0.008,0-0.013c0-0.004,0-0.008,0-0.013
							c0-0.004,0-0.008,0-0.013c0-0.004,0-0.008,0-0.013c0-0.004,0-0.008,0-0.013c0-0.004,0-0.008,0-0.013c0-0.004,0-0.008,0-0.013
							c0-0.004,0-0.008,0-0.013c0-0.004,0-0.009,0-0.013c0-0.004,0-0.008,0-0.013c0-0.004,0-0.008,0-0.013c0-0.004,0-0.008,0-0.013
							c0-0.004,0-0.008,0-0.013c0-0.004,0-0.009,0-0.013c0-0.004,0-0.008,0-0.013c0-0.004,0-0.008,0-0.013c0-0.004,0-0.009,0-0.013
							c0-0.004,0-0.008,0-0.013c0-0.004,0-0.008,0-0.013c0-0.004,0-0.009,0-0.013c0-0.004,0-0.008,0-0.013c0-0.004,0-0.008,0-0.013
							c0-0.004,0-0.008,0-0.013c0-0.004,0-0.008,0-0.013c0-0.004,0-0.008,0-0.013c0-0.004,0-0.009,0-0.013c0-0.004,0-0.008,0-0.013
							c0-0.004,0-0.009,0-0.013c0-0.004,0-0.008,0-0.013c0-0.004,0-0.008,0-0.013c0-0.004,0-0.008,0-0.013c0-0.004,0-0.008,0-0.013
							l0,0C524.408,514.635,524.111,515.169,523.517,515.397z"/>
					</g>
					<g>
						<path style="fill:#FFA000;" d="M523.517,515.397c-2.819,1.083-6.618,2.447-7.867,2.447c-2.069,0-3.746-1.676-3.75-3.744
							c0,0.002-0.001,0.004-0.001,0.006s0.001,0.004,0.001,0.006c0,0.002-0.001,0.004-0.001,0.007s0.001,0.004,0.001,0.006
							s-0.001,0.004-0.001,0.006s0.001,0.004,0.001,0.006c0,0.002-0.001,0.004-0.001,0.006s0.001,0.004,0.001,0.006
							s-0.001,0.004-0.001,0.006s0.001,0.004,0.001,0.006s-0.001,0.004-0.001,0.006c0,0.002,0.001,0.004,0.001,0.006
							s-0.001,0.004-0.001,0.006c0,0.002,0.001,0.004,0.001,0.006s-0.001,0.004-0.001,0.007c0,0.002,0.001,0.004,0.001,0.006
							s-0.001,0.004-0.001,0.006c0,0.002,0.001,0.004,0.001,0.006c0,0.002-0.001,0.004-0.001,0.007s0.001,0.004,0.001,0.006
							s-0.001,0.004-0.001,0.006c0,0.002,0.001,0.004,0.001,0.006s-0.001,0.004-0.001,0.006s0.001,0.004,0.001,0.006
							c0,0.002-0.001,0.004-0.001,0.007s0.001,0.004,0.001,0.006c0,0.002-0.001,0.004-0.001,0.006c0,0.002,0.001,0.004,0.001,0.006
							c0,0.002-0.001,0.004-0.001,0.006s0.001,0.004,0.001,0.006s-0.001,0.004-0.001,0.006s0.001,0.004,0.001,0.006
							s-0.001,0.004-0.001,0.006c0,0.002,0.001,0.004,0.001,0.006c0,0.002-0.001,0.004-0.001,0.006c0,0.002,0.001,0.004,0.001,0.006
							s-0.001,0.004-0.001,0.007c0,0.002,0.001,0.004,0.001,0.006s-0.001,0.004-0.001,0.006c0,0.002,0.001,0.004,0.001,0.006
							c0,0.002-0.001,0.004-0.001,0.006s0.001,0.004,0.001,0.006c0,0.002-0.001,0.004-0.001,0.007s0.001,0.004,0.001,0.006
							c0,0.002-0.001,0.004-0.001,0.006s0.001,0.004,0.001,0.006c0,0.002-0.001,0.004-0.001,0.006s0.001,0.004,0.001,0.007
							c0,0.002-0.001,0.004-0.001,0.006s0.001,0.004,0.001,0.006s-0.001,0.004-0.001,0.006s0.001,0.004,0.001,0.006
							s-0.001,0.004-0.001,0.006s0.001,0.004,0.001,0.006s-0.001,0.004-0.001,0.006c0,0.002,0.001,0.004,0.001,0.006
							s-0.001,0.004-0.001,0.006c0,0.002,0.001,0.004,0.001,0.006s-0.001,0.004-0.001,0.007c0,0.002,0.001,0.004,0.001,0.006
							s-0.001,0.004-0.001,0.007c0,0.002,0.001,0.004,0.001,0.006c0,0.002-0.001,0.004-0.001,0.006s0.001,0.004,0.001,0.006
							c0,0.002-0.001,0.004-0.001,0.006s0.001,0.004,0.001,0.006c0,0.002-0.001,0.004-0.001,0.006s0.001,0.004,0.001,0.006
							s-0.001,0.004-0.001,0.006s0.001,0.004,0.001,0.006s-0.001,0.004-0.001,0.006c0,0.002,0.001,0.004,0.001,0.006
							s-0.001,0.004-0.001,0.006c0,0.002,0.001,0.004,0.001,0.006s-0.001,0.004-0.001,0.006c0,0.002,0.001,0.004,0.001,0.006
							s-0.001,0.004-0.001,0.007c0,0.002,0.001,0.004,0.001,0.006s-0.001,0.004-0.001,0.006c0,0.002,0.001,0.004,0.001,0.006
							c0,0.002-0.001,0.004-0.001,0.007c0,0.002,0.001,0.004,0.001,0.006c0,0.002-0.001,0.004-0.001,0.007s0.001,0.004,0.001,0.006
							c0,0.002-0.001,0.004-0.001,0.006s0.001,0.004,0.001,0.006c0,0.002-0.001,0.004-0.001,0.006s0.001,0.004,0.001,0.006
							c0,0.002-0.001,0.004-0.001,0.006s0.001,0.004,0.001,0.006s-0.001,0.004-0.001,0.006s0.001,0.004,0.001,0.006
							s-0.001,0.004-0.001,0.006c0,0.002,0.001,0.004,0.001,0.006s-0.001,0.004-0.001,0.006c0,0.002,0.001,0.004,0.001,0.006
							s-0.001,0.004-0.001,0.006c0,0.002,0.001,0.004,0.001,0.006s-0.001,0.004-0.001,0.006c0,0.002,0.001,0.004,0.001,0.006
							c0,0.002-0.001,0.004-0.001,0.007s0.001,0.004,0.001,0.006c0,0.002-0.001,0.004-0.001,0.006c0,0.002,0.001,0.004,0.001,0.006
							c0,0.002-0.001,0.004-0.001,0.006s0.001,0.004,0.001,0.006c0,0.002-0.001,0.004-0.001,0.007s0.001,0.004,0.001,0.006
							c0,0.002-0.001,0.004-0.001,0.006s0.001,0.004,0.001,0.006c0,0.002-0.001,0.004-0.001,0.006s0.001,0.004,0.001,0.006
							s-0.001,0.004-0.001,0.006s0.001,0.004,0.001,0.006s-0.001,0.004-0.001,0.006c0,0.002,0.001,0.004,0.001,0.006
							s-0.001,0.004-0.001,0.006c0,0.002,0.001,0.004,0.001,0.006s-0.001,0.004-0.001,0.006s0.001,0.004,0.001,0.006
							c0,0.002-0.001,0.004-0.001,0.006s0.001,0.004,0.001,0.006c0,0.002-0.001,0.004-0.001,0.007s0.001,0.004,0.001,0.006
							c0,0.002-0.001,0.004-0.001,0.006s0.001,0.004,0.001,0.006s-0.001,0.004-0.001,0.006s0.001,0.004,0.001,0.006
							s-0.001,0.004-0.001,0.006s0.001,0.004,0.001,0.006s-0.001,0.004-0.001,0.006c0,0.002,0.001,0.004,0.001,0.006
							s-0.001,0.004-0.001,0.006c0,0.002,0.001,0.004,0.001,0.007s-0.001,0.004-0.001,0.006c0,0.002,0.001,0.004,0.001,0.006
							s-0.001,0.004-0.001,0.006c0,0.002,0.001,0.004,0.001,0.006s-0.001,0.004-0.001,0.007c0,0.002,0.001,0.004,0.001,0.006
							s-0.001,0.004-0.001,0.007c0,2.071,1.679,3.75,3.75,3.75c1.249,0,5.048-1.364,7.867-2.447c0.599-0.23,0.896-0.771,0.894-1.31
							c0-0.004,0-0.008,0-0.013c0-0.004,0-0.008,0-0.013c0-0.004,0-0.008,0-0.013c0-0.004,0-0.008,0-0.013c0-0.004,0-0.008,0-0.013
							c0-0.004,0-0.009,0-0.013c0-0.004,0-0.008,0-0.013c0-0.004,0-0.008,0-0.013c0-0.004,0-0.008,0-0.013c0-0.004,0-0.008,0-0.013
							c0-0.004,0-0.008,0-0.013c0-0.004,0-0.008,0-0.013c0-0.004,0-0.008,0-0.013c0-0.004,0-0.008,0-0.013c0-0.004,0-0.008,0-0.013
							c0-0.004,0-0.008,0-0.013c0-0.004,0-0.008,0-0.013c0-0.004,0-0.008,0-0.013c0-0.004,0-0.008,0-0.013c0-0.004,0-0.008,0-0.013
							c0-0.004,0-0.008,0-0.013c0-0.004,0-0.008,0-0.013c0-0.004,0-0.008,0-0.013c0-0.004,0-0.008,0-0.013c0-0.004,0-0.008,0-0.013
							c0-0.004,0-0.009,0-0.013c0-0.004,0-0.008,0-0.013c0-0.004,0-0.008,0-0.013c0-0.004,0-0.008,0-0.013c0-0.004,0-0.008,0-0.013
							c0-0.004,0-0.008,0-0.013c0-0.004,0-0.008,0-0.013c0-0.004,0-0.008,0-0.013c0-0.004,0-0.008,0-0.013c0-0.004,0-0.009,0-0.013
							c0-0.004,0-0.008,0-0.013c0-0.004,0-0.008,0-0.013c0-0.004,0-0.008,0-0.013c0-0.004,0-0.008,0-0.013c0-0.004,0-0.008,0-0.013
							c0-0.004,0-0.008,0-0.013c0-0.004,0-0.008,0-0.013c0-0.004,0-0.008,0-0.013c0-0.004,0-0.008,0-0.013c0-0.004,0-0.008,0-0.013
							c0-0.004,0-0.008,0-0.013c0-0.004,0-0.009,0-0.013c0-0.004,0-0.008,0-0.013c0-0.004,0-0.008,0-0.013c0-0.004,0-0.008,0-0.013
							c0-0.004,0-0.008,0-0.013c0-0.004,0-0.009,0-0.013c0-0.004,0-0.008,0-0.013c0-0.004,0-0.008,0-0.013c0-0.004,0-0.009,0-0.013
							c0-0.004,0-0.008,0-0.013c0-0.004,0-0.008,0-0.013c0-0.004,0-0.009,0-0.013c0-0.004,0-0.008,0-0.013c0-0.004,0-0.008,0-0.013
							c0-0.004,0-0.008,0-0.013c0-0.004,0-0.008,0-0.013c0-0.004,0-0.008,0-0.013c0-0.004,0-0.009,0-0.013c0-0.004,0-0.008,0-0.013
							c0-0.004,0-0.009,0-0.013c0-0.004,0-0.008,0-0.013c0-0.004,0-0.008,0-0.013c0-0.004,0-0.008,0-0.013c0-0.004,0-0.008,0-0.013
							l0,0C524.408,514.635,524.111,515.169,523.517,515.397z"/>
					</g>
				</g>
				<path style="fill:#F5F5F5;" d="M515.65,510.95c0.88,0,3.668,0.877,7.649,2.406c0.469,0.18,0.506,0.61,0.506,0.737
					c0,0.127-0.036,0.557-0.506,0.737c-3.981,1.529-6.769,2.406-7.649,2.406c-1.733,0-3.144-1.41-3.144-3.144
					S513.917,510.95,515.65,510.95 M515.65,510.343c-2.071,0-3.75,1.679-3.75,3.75c0,2.071,1.679,3.75,3.75,3.75
					c1.249,0,5.048-1.364,7.867-2.447c1.193-0.458,1.193-2.149,0-2.607C520.698,511.707,516.899,510.343,515.65,510.343
					L515.65,510.343z"/>
			</g>
			<path style="fill:#4DB6AC;" d="M503.625,398.068c-12.077-7.304-26.238-11.511-41.382-11.511H300.089
				c-15.144,0-29.305,4.207-41.382,11.511H503.625z"/>
			<rect x="542.323" y="544.579" style="fill:#EEEEEE;" width="55.443" height="3.64"/>
			<rect x="542.323" y="548.219" style="opacity:0.25;fill:#212121;" width="53.016" height="0.683"/>
			<rect x="337.94" y="536.591" style="fill:#00897B;" width="59.794" height="17.094"/>
			<polygon style="opacity:0.25;fill:#212121;" points="589.424,555.954 589.424,551.424 571.766,551.424 555.572,555.954 
				569.487,555.954 584.631,551.718 584.631,555.954 			"/>
			<path style="fill:#FAFAFA;" d="M586.892,523.084c0.398,0.398-0.113,1.555-1.143,2.584c-1.029,1.029-2.186,1.541-2.584,1.143
				c-0.398-0.398,0.114-1.555,1.143-2.584C585.338,523.197,586.495,522.686,586.892,523.084z"/>
		</g>
	</g>
</g>
</svg>
